:SAMPLES-PER-SECOND 30
:FRAME-RANGE 1-744
:FULLY-SPECIFIED
:DEGREES
419
root  -3.21624 16.8743 95.9193 14.6347 7.96295 -3.06375
RightUpLeg  -92.5691 -2.38522 -3.01049
RightLeg  129.241 -0.343994 0.990792
RightFoot  -46.3936 1.32513 5.21132
RightToes  -5.28216e-011 1.2921e-014 -6.02303e-014
Spine  41.2867 -0.806372 -1.58894
Spine1  11.2466 0.659297 1.06891
HEad  -12.5626 -6.30948 3.60879
LeftShoulder1  2.78959 -17.6718 -5.72639
LeftArm  -33.1248 -55.2099 -22.3116
LeftForeArm  0.3632 -10.9026 -5.23985
LeftHand  0.115232 -0.881614 -2.05708
RightShoulder  2.26689 9.84163 10.078
RightArm  -30.6579 55.4498 49.7614
RightForeArm  17.0495 13.2674 -0.176171
RightHand  -0.78684 2.68007 -11.5087
LeftUpLeg  -97.5332 4.88715 8.15228
LeftLeg  128.309 -1.51453 1.31289
LeftFoot  -40.3599 -1.78907 -7.8522
LeftToes  -9.4837e-011 -7.11147e-011 -1.07582e-011
420
root  -3.1909 16.7213 95.919 14.3214 7.98436 -2.99684
RightUpLeg  -92.6303 -2.13311 -3.43598
RightLeg  129.816 -0.24121 0.86339
RightFoot  -46.5107 1.47362 5.66346
RightToes  -5.28216e-011 1.2921e-014 -6.02303e-014
Spine  41.6337 -0.898217 -1.63927
Spine1  11.0311 0.564523 0.999805
HEad  -11.7103 -6.40938 3.60743
LeftShoulder1  2.72065 -17.3945 -5.55449
LeftArm  -32.0343 -54.7951 -23.0636
LeftForeArm  -0.586305 -11.595 -5.41016
LeftHand  0.0964092 -0.764098 -1.75184
RightShoulder  2.26317 9.80544 10.0993
RightArm  -30.6189 55.2092 50.0189
RightForeArm  17.5749 13.6063 0.0038111
RightHand  -0.899612 3.29497 -12.2295
LeftUpLeg  -97.6323 4.41947 8.2613
LeftLeg  128.869 -1.87421 1.69803
LeftFoot  -40.4265 -1.80427 -7.89347
LeftToes  -9.4837e-011 -7.11147e-011 -1.07582e-011
421
root  -3.17079 16.5873 95.9059 14.1919 7.86414 -3.1476
RightUpLeg  -92.9375 -1.5729 -3.58821
RightLeg  130.218 -0.00982823 0.601374
RightFoot  -46.4353 1.69855 6.38474
RightToes  -5.28216e-011 1.2921e-014 -6.02303e-014
Spine  41.7506 -0.810386 -1.55579
Spine1  10.7813 0.655532 1.21078
HEad  -11.0747 -6.2194 3.53792
LeftShoulder1  2.6621 -17.3159 -5.29198
LeftArm  -31.3759 -54.6057 -24.2319
LeftForeArm  -1.48433 -11.3062 -5.4271
LeftHand  0.091609 -0.76363 -1.6609
RightShoulder  2.23765 9.70945 10.0219
RightArm  -30.7987 55.1543 49.9496
RightForeArm  17.9701 13.8318 0.0894644
RightHand  -0.865728 2.9592 -12.2309
LeftUpLeg  -97.9202 3.9772 8.74526
LeftLeg  129.333 -2.24338 2.08603
LeftFoot  -40.4511 -1.90607 -8.27764
LeftToes  -9.4837e-011 -7.11147e-011 -1.07582e-011
422
root  -3.14482 16.5042 95.8573 13.9649 7.6577 -3.11842
RightUpLeg  -93.1048 -1.17175 -4.05473
RightLeg  130.442 0.0634571 0.519437
RightFoot  -46.3241 1.7441 6.54795
RightToes  -5.28216e-011 1.2921e-014 -6.02303e-014
Spine  42.0209 -0.810794 -1.55498
Spine1  10.6436 0.660968 1.14984
HEad  -11.0602 -5.90168 3.61407
LeftShoulder1  2.58579 -17.1652 -4.98045
LeftArm  -31.3094 -54.631 -24.7898
LeftForeArm  -2.53622 -10.7621 -5.34965
LeftHand  0.0967449 -0.909644 -1.70228
RightShoulder  2.19247 9.62772 9.7523
RightArm  -31.0421 55.5008 50.0248
RightForeArm  18.4629 13.8742 -0.0254635
RightHand  -0.835472 2.7388 -12.1185
LeftUpLeg  -97.9752 3.67957 8.8362
LeftLeg  129.571 -2.41161 2.25619
LeftFoot  -40.3981 -2.04575 -8.82859
LeftToes  -9.4837e-011 -7.11147e-011 -1.07582e-011
423
root  -3.13905 16.4554 95.7964 13.8667 7.44894 -3.30669
RightUpLeg  -93.426 -0.751536 -4.04214
RightLeg  130.467 0.178422 0.393648
RightFoot  -46.0118 1.79932 6.77973
RightToes  -5.28216e-011 1.2921e-014 -6.02303e-014
Spine  42.1981 -0.760689 -1.42674
Spine1  10.2661 0.788365 1.18229
HEad  -10.9083 -5.5887 4.04063
LeftShoulder1  2.63977 -17.1382 -5.29674
LeftArm  -31.4955 -54.787 -24.6337
LeftForeArm  -2.62607 -10.4907 -5.32161
LeftHand  0.101563 -0.678557 -1.88515
RightShoulder  2.17053 9.63546 9.55133
RightArm  -30.8746 55.8569 50.0136
RightForeArm  18.2813 13.3553 -0.278469
RightHand  -0.826594 2.59066 -12.2046
LeftUpLeg  -98.1793 3.67384 9.14111
LeftLeg  129.679 -2.57507 2.43002
LeftFoot  -40.1886 -2.05329 -8.91931
LeftToes  -9.4837e-011 -7.11147e-011 -1.07582e-011
424
root  -3.14395 16.4704 95.6969 13.8543 7.20058 -3.4308
RightUpLeg  -93.7358 -0.381464 -4.02901
RightLeg  130.174 0.259243 0.304668
RightFoot  -45.6787 1.80409 6.85698
RightToes  -5.28216e-011 1.2921e-014 -6.02303e-014
Spine  42.2507 -0.640203 -1.32551
Spine1  9.94148 0.936205 1.29884
HEad  -10.6942 -5.49873 4.51577
LeftShoulder1  2.57261 -17.0444 -4.99279
LeftArm  -31.4116 -55.328 -25.0394
LeftForeArm  -3.18092 -9.26337 -5.22837
LeftHand  0.156959 -1.06742 -2.73286
RightShoulder  2.12373 9.59631 9.2019
RightArm  -30.3053 56.3446 50.1099
RightForeArm  17.6312 12.2096 -0.714917
RightHand  -0.81327 2.50531 -12.1361
LeftUpLeg  -98.3449 3.83389 9.29902
LeftLeg  129.494 -2.5404 2.40844
LeftFoot  -39.9855 -2.10294 -9.17345
LeftToes  -9.4837e-011 -7.11147e-011 -1.07582e-011
425
root  -3.12066 16.6059 95.5599 13.7107 7.06927 -3.19244
RightUpLeg  -93.6279 -0.400035 -4.42834
RightLeg  129.525 0.208913 0.360104
RightFoot  -45.1565 1.79238 6.91818
RightToes  -5.28216e-011 1.2921e-014 -6.02303e-014
Spine  42.4412 -0.738798 -1.28711
Spine1  9.63792 0.843615 1.19207
HEad  -10.5345 -5.4076 4.81908
LeftShoulder1  2.55386 -17.3139 -4.70219
LeftArm  -31.5255 -55.8963 -24.4554
LeftForeArm  -4.06104 -7.30328 -5.04241
LeftHand  0.179723 -0.878852 -3.25933
RightShoulder  2.10218 9.67358 8.90651
RightArm  -29.5682 57.3137 50.199
RightForeArm  16.9198 10.0674 -1.45119
RightHand  -0.790622 2.60991 -11.659
LeftUpLeg  -98.0634 3.6771 8.74353
LeftLeg  128.811 -2.80658 2.78043
LeftFoot  -39.6311 -2.02201 -8.96442
LeftToes  -9.4837e-011 -7.11147e-011 -1.07582e-011
426
root  -3.13361 16.8537 95.4387 13.6432 6.73315 -3.45227
RightUpLeg  -93.4168 -0.00837909 -4.10089
RightLeg  128.451 0.19808 0.372644
RightFoot  -44.3643 1.72427 6.84492
RightToes  -5.28216e-011 1.2921e-014 -6.02303e-014
Spine  42.0262 -0.716792 -1.11653
Spine1  9.82399 0.926976 1.19208
HEad  -10.1993 -5.38857 5.03686
LeftShoulder1  2.51254 -17.7671 -4.17741
LeftArm  -32.074 -56.4669 -23.4414
LeftForeArm  -4.73344 -4.86242 -4.70841
LeftHand  0.100174 -0.381055 -1.98871
RightShoulder  2.10367 10.0688 8.38444
RightArm  -29.5114 58.8893 50.022
RightForeArm  17.037 6.70253 -2.57099
RightHand  -0.633416 1.90223 -10.2489
LeftUpLeg  -97.6228 4.21742 8.73188
LeftLeg  127.898 -2.75932 2.8229
LeftFoot  -39.1196 -1.89001 -8.59142
LeftToes  -9.4837e-011 -7.11147e-011 -1.07582e-011
427
root  -3.12915 17.2782 95.3121 13.9043 6.28081 -3.67012
RightUpLeg  -93.0957 0.487537 -3.75832
RightLeg  126.719 0.353587 0.179488
RightFoot  -43.3522 1.62763 6.71134
RightToes  -5.28216e-011 1.2921e-014 -6.02303e-014
Spine  41.2194 -0.707379 -0.850409
Spine1  10.074 1.0706 1.05224
HEad  -9.95675 -5.63652 5.45448
LeftShoulder1  2.42645 -18.1614 -3.47472
LeftArm  -32.4064 -57.4439 -22.6305
LeftForeArm  -3.7806 -2.10683 -4.47549
LeftHand  0.101884 0.110204 -2.27468
RightShoulder  2.0692 10.5729 7.4659
RightArm  -29.899 60.6702 49.5224
RightForeArm  18.4482 2.74295 -3.93992
RightHand  -0.575296 1.20824 -10.2508
LeftUpLeg  -96.8726 4.54903 8.72347
LeftLeg  126.34 -2.71754 2.9443
LeftFoot  -38.6261 -1.91397 -8.83786
LeftToes  -9.4837e-011 -7.11147e-011 -1.07582e-011
428
root  -3.1183 17.8832 95.1985 14.378 6.103 -3.66714
RightUpLeg  -92.3713 0.597318 -3.58137
RightLeg  124.421 0.390915 0.114035
RightFoot  -42.3178 1.51095 6.49971
RightToes  -5.28216e-011 1.2921e-014 -6.02303e-014
Spine  40.1815 -0.830606 -0.594639
Spine1  10.1924 1.10967 0.902969
HEad  -9.65302 -5.96366 5.70627
LeftShoulder1  2.33092 -18.4243 -2.82155
LeftArm  -31.7951 -58.6032 -22.5931
LeftForeArm  -1.11229 0.428106 -4.65083
LeftHand  0.0462087 1.12255 -1.44402
RightShoulder  1.99152 10.7658 6.61491
RightArm  -29.6196 62.4786 49.6061
RightForeArm  21.2728 -1.19533 -5.00469
RightHand  -0.498683 -0.278124 -11.3455
LeftUpLeg  -95.8565 4.26345 8.51768
LeftLeg  124.116 -3.11936 3.75724
LeftFoot  -37.9072 -1.84883 -8.79156
LeftToes  -9.4837e-011 -7.11147e-011 -1.07582e-011
429
root  -3.09825 18.717 95.0712 14.9562 5.78683 -3.59787
RightUpLeg  -91.218 0.851863 -3.41455
RightLeg  121.299 0.483592 -0.05451
RightFoot  -40.9636 1.41592 6.41535
RightToes  -5.28216e-011 1.2921e-014 -6.02303e-014
Spine  39.1587 -0.81253 -0.328196
Spine1  10.2762 1.1898 0.897692
HEad  -9.64039 -6.20572 5.86804
LeftShoulder1  2.25344 -18.6809 -2.27961
LeftArm  -30.212 -59.6278 -23.6689
LeftForeArm  -0.304499 3.12473 -4.93882
LeftHand  0.0382904 1.80327 -1.58786
RightShoulder  1.90273 10.877 5.78382
RightArm  -28.8058 63.9603 49.9849
RightForeArm  24.2767 -4.51756 -5.58822
RightHand  -0.390568 -1.92025 -12.8876
LeftUpLeg  -94.3049 3.89067 8.21246
LeftLeg  121.048 -3.39841 4.66301
LeftFoot  -36.9456 -1.8171 -8.96691
LeftToes  -9.4837e-011 -7.11147e-011 -1.07582e-011
430
root  -3.08024 19.7522 94.9505 15.4587 5.39188 -3.64998
RightUpLeg  -89.4434 1.2147 -3.07628
RightLeg  117.383 0.569699 -0.269712
RightFoot  -39.433 1.23979 6.0335
RightToes  -5.28216e-011 1.2921e-014 -6.02303e-014
Spine  38.2825 -0.849463 0.0986143
Spine1  10.2705 1.31635 0.729083
HEad  -9.44179 -6.19135 5.52261
LeftShoulder1  2.16235 -18.6699 -1.81638
LeftArm  -28.1639 -60.0864 -26.4563
LeftForeArm  2.50161 5.0452 -5.13141
LeftHand  0.0220363 2.72396 -1.65621
RightShoulder  1.82941 10.9215 5.15407
RightArm  -27.8265 64.965 51.3308
RightForeArm  28.9198 -4.7897 -5.74563
RightHand  -0.245306 -3.45343 -14.0926
LeftUpLeg  -92.1102 3.76843 7.94084
LeftLeg  117.278 -3.41294 5.46231
LeftFoot  -35.8742 -1.7564 -9.06151
LeftToes  -9.4837e-011 -7.11147e-011 -1.07582e-011
431
root  -3.06109 20.9711 94.86 15.8285 4.95351 -3.5511
RightUpLeg  -86.9491 1.49784 -2.81036
RightLeg  112.825 0.608239 -0.475981
RightFoot  -37.8083 1.06612 5.63167
RightToes  -5.28216e-011 1.2921e-014 -6.02303e-014
Spine  37.5829 -0.901113 0.423293
Spine1  10.2422 1.33788 0.47712
HEad  -9.10148 -5.94474 5.31189
LeftShoulder1  2.16556 -18.4944 -1.92388
LeftArm  -25.1126 -59.8833 -29.796
LeftForeArm  4.42831 6.01663 -5.70646
LeftHand  0.00663585 3.17876 -1.3094
RightShoulder  1.80971 10.9485 4.97034
RightArm  -26.1623 65.5805 53.071
RightForeArm  33.2771 -4.77887 -5.48324
RightHand  -0.116884 -4.61416 -15.599
LeftUpLeg  -89.1936 3.61199 7.51278
LeftLeg  112.814 -3.25551 6.31423
LeftFoot  -34.6997 -1.69023 -9.17546
LeftToes  -9.4837e-011 -7.11147e-011 -1.07582e-011
432
root  -3.0388 22.3393 94.7938 16.284 4.37086 -3.59178
RightUpLeg  -84.1831 1.82883 -2.45964
RightLeg  107.626 0.515158 -0.436293
RightFoot  -35.8021 0.862355 5.10498
RightToes  -5.28216e-011 1.2921e-014 -6.02303e-014
Spine  36.7464 -0.980934 0.932443
Spine1  10.2373 1.41988 0.0161292
HEad  -8.48098 -5.40715 5.00033
LeftShoulder1  2.21405 -18.168 -2.35268
LeftArm  -21.7492 -58.9679 -33.6385
LeftForeArm  4.40103 6.33855 -6.30286
LeftHand  0.00139384 3.53018 -1.35518
RightShoulder  1.83395 11.0243 5.08607
RightArm  -24.4463 65.6539 54.7598
RightForeArm  36.7863 -4.7889 -5.10433
RightHand  -0.0620194 -5.03155 -15.6803
LeftUpLeg  -85.9505 3.53827 7.28799
LeftLeg  107.721 -2.9647 7.36799
LeftFoot  -33.2821 -1.57976 -9.17008
LeftToes  -9.4837e-011 -7.11147e-011 -1.07582e-011
